<svg width="400" height="160" viewBox="0 0 400 160" fill="none" xmlns="http://www.w3.org/2000/svg">
<mask id="mask0_637_1014" style="mask-type:alpha" maskUnits="userSpaceOnUse" x="0" y="0" width="400" height="160">
<path fill-rule="evenodd" clip-rule="evenodd" d="M399.194 135.433C399.356 140.693 399.507 145.586 399.699 150.114V150.014C399.753 151.747 399.837 153.129 399.902 154.205C399.957 155.112 399.999 155.803 399.999 156.305C399.899 158.302 398.798 159.401 396.697 159.401C395.696 159.401 394.795 159.301 394.095 159.201C393.494 159.001 392.293 159.001 390.592 159.001C388.891 159.001 386.189 159.101 382.386 159.401C378.383 159.7 375.581 159.8 373.979 159.8C371.177 159.8 369.176 159.201 367.775 158.103C366.474 156.904 364.973 154.807 363.572 151.811L359.869 144.421C355.566 134.735 351.663 127.145 348.36 121.652C346.459 118.457 341.755 109.769 334.05 95.4881L324.542 77.5127V90.6947C324.542 91.1844 324.522 91.7535 324.5 92.3843C324.473 93.1684 324.442 94.048 324.442 94.9888C324.342 96.7864 324.342 98.6838 324.542 100.881C324.542 108.371 324.642 118.257 324.843 130.341C325.043 142.424 325.443 149.714 325.843 152.211C326.044 152.91 326.044 153.808 326.044 154.807C326.044 156.205 325.743 157.104 325.143 157.503C324.642 157.803 323.542 157.903 321.94 157.803C319.639 157.803 316.937 157.903 313.834 158.202C310.732 158.502 307.73 158.802 305.028 159.101C302.926 159.401 301.525 159.001 300.825 158.003C300.124 157.004 299.924 154.807 300.024 151.312C300.024 146.754 299.793 139.196 299.465 128.502C299.42 127.012 299.372 125.461 299.323 123.849C298.723 110.068 298.323 98.1844 298.223 88.0982C298.223 77.9121 298.523 67.4265 298.923 56.9408C299.223 43.6589 299.323 34.5713 299.323 29.678C299.323 23.087 299.023 18.1937 298.623 15.1978C298.323 12.6013 298.223 10.9037 298.223 10.2046C298.223 7.60817 298.623 5.81062 299.524 4.91185C300.424 4.01308 301.625 3.51376 303.026 3.51376C303.279 3.51376 303.623 3.52675 304.062 3.54336C304.841 3.5728 305.922 3.61362 307.329 3.61362C309.531 3.71349 312.633 3.21417 316.636 2.21553C318.238 1.91594 319.839 1.81608 321.44 1.81608C322.341 1.81608 323.542 1.81608 325.143 2.01581C326.744 2.21553 328.846 2.21553 331.448 2.21553C334.75 2.21553 337.552 3.51376 339.754 6.11021C342.056 8.70667 344.457 12.3018 347.059 17.0952L349.261 20.9899C350.962 24.1855 353.064 27.5809 355.566 31.176L358.768 36.1692V24.2854C358.768 15.2977 358.868 9.80517 358.968 7.60817C358.968 4.81199 359.869 3.21417 361.77 2.61499C363.572 2.01581 366.374 1.71621 369.976 1.71621C373.079 1.71621 377.182 1.61635 382.186 1.2169C387.189 0.817443 390.992 0.417988 393.794 0.0185338C395.796 -0.0813298 397.197 0.218261 398.098 1.01717C398.998 1.81608 399.399 3.11431 399.399 5.01171C399.399 5.61089 399.298 7.20871 398.998 9.80517C398.698 11.9023 398.598 26.2827 398.598 52.8464V101.78C398.598 109.169 398.698 117.258 398.898 126.146C399.007 129.359 399.102 132.455 399.194 135.433ZM108.581 135.933L111.183 141.326L111.283 141.425C114.586 148.815 117.188 153.509 118.889 155.506C119.59 156.904 119.99 157.903 119.99 158.302C119.99 159.401 118.689 160 116.087 160H100.475C99.975 160 99.3745 159.501 98.7741 158.502C98.1736 157.404 97.6733 156.405 97.273 155.406C96.9672 154.643 96.6614 153.939 96.4002 153.337C96.3195 153.151 96.243 152.975 96.1721 152.81C95.4716 151.312 94.0705 148.016 92.1691 142.823C90.2677 137.631 88.7666 133.436 87.7658 130.44C87.3655 129.042 86.4649 126.845 85.1639 124.049C83.8629 121.153 82.9622 119.256 82.3618 118.057C81.7613 116.26 81.2609 115.161 80.7606 114.562C80.2602 113.963 79.4596 113.663 78.4588 113.663C77.6042 113.663 76.5305 113.736 75.3002 113.82L75.2945 113.82L75.2746 113.821C75.0725 113.835 74.8662 113.849 74.656 113.863C73.981 113.908 73.2655 113.973 72.5277 114.04L72.527 114.04C71.6243 114.122 70.6883 114.208 69.7523 114.262C68.6515 114.562 65.0488 114.662 58.9442 114.662C54.7411 114.662 50.5379 114.762 46.5349 115.061C45.234 115.261 42.9324 115.261 39.6301 115.261H39.6297L28.1211 115.061C27.4206 115.061 26.9202 115.361 26.5199 115.96C26.1196 116.559 25.8194 117.258 25.7193 118.057C25.6192 118.856 25.319 119.955 25.319 119.955L24.018 125.347C23.7874 126.498 23.4904 127.748 23.1653 129.116C22.926 130.123 22.6714 131.195 22.4168 132.338C22.2811 132.947 22.1454 133.546 22.012 134.135C21.5552 136.152 21.1254 138.05 20.8156 139.828L18.4138 149.115L16.7125 155.406C16.3122 157.204 15.9119 158.302 15.5116 158.802C15.2114 159.401 14.611 159.601 13.9104 159.601H1.10083C0.4003 159.601 0 159.301 0 158.702C0 158.502 0.300225 157.404 0.900675 155.706C2.0015 153.01 3.00225 150.313 3.90293 147.517C9.2069 129.641 12.4093 117.957 13.4101 112.465C14.711 105.175 17.4131 95.8876 21.4161 84.5031C22.717 79.6098 23.9179 75.2158 25.1188 71.1214C25.5191 69.0243 26.1196 66.6275 27.0203 63.7315C29.7223 53.6453 32.5244 44.1582 35.2264 35.3702L40.6305 18.0938C41.7313 13.6 43.2324 9.00626 44.9337 4.21281C45.7343 2.11567 46.7351 1.61635 47.936 2.71485C48.7365 3.21417 49.4371 4.31267 49.8374 5.71076C50.3378 7.20871 50.638 8.20735 50.738 8.80653C51.1384 10.5042 55.0413 19.1923 62.2467 34.7711C65.1489 40.663 68.2512 48.4524 71.5537 57.9394C72.9547 62.1337 76.9577 71.1214 83.4626 85.0024C86.7651 91.7932 88.9667 96.4868 89.9675 99.0832C92.2692 104.176 98.4739 116.459 108.581 135.933ZM64.5484 83.7042C65.2489 83.7042 66.2497 83.5045 66.2497 83.5045H66.3498C66.8501 83.3048 67.0503 83.105 67.0503 82.8054C67.0503 82.5972 66.9053 82.2925 66.6824 81.8243C66.5846 81.6188 66.4718 81.3819 66.3498 81.1078C65.6492 79.7097 63.948 76.0147 61.346 70.1228C58.7441 64.2308 56.9427 59.6371 55.942 56.6412C54.4408 53.146 53.34 50.2499 52.5394 47.9531C51.7388 45.6562 51.1384 44.0584 50.738 43.1596C50.4378 42.3607 50.1376 41.6617 49.7373 40.9626C49.6223 40.7618 49.5156 40.5692 49.4147 40.3873L49.4143 40.3865L49.4142 40.3863C49.1642 39.9352 48.9504 39.5494 48.7365 39.2649C48.4363 38.7656 48.1361 38.5659 47.8359 38.5659C47.4356 38.5659 46.9352 39.6644 46.4348 41.8614C45.9344 44.0584 45.5341 45.7561 45.2339 46.8546C42.632 55.2431 40.8306 61.6344 39.6297 65.9285C39.0293 68.0256 38.2287 70.722 37.1278 73.8177C36.6059 75.2857 36.1514 76.5291 35.7751 77.5586L35.7747 77.5595L35.7745 77.5602C35.3575 78.7011 35.0365 79.5792 34.8261 80.209C34.4258 81.707 34.2257 82.8054 34.2257 83.7042C34.2257 84.603 34.8261 85.0024 36.1271 85.0024C39.2294 85.0024 43.8329 84.9026 50.1376 84.7029C56.4423 84.4033 60.3453 84.2035 61.9465 83.9039C62.9472 83.7042 63.8479 83.7042 64.5484 83.7042ZM270.804 5.51223C273.906 5.51223 276.308 5.61209 277.709 5.71195H277.909C279.71 5.91168 280.911 6.21127 281.612 6.81045C282.312 7.40964 282.712 8.20854 282.712 9.20718C282.712 9.82646 282.634 10.5241 282.546 11.3001L282.546 11.3033L282.546 11.3037L282.512 11.6039C282.453 12.1385 282.358 12.6378 282.27 13.1018L282.27 13.1021C282.209 13.418 282.153 13.7175 282.112 14.0006C280.511 26.184 279.61 38.8667 279.51 51.8489C279.31 55.5439 279.31 61.336 279.31 69.1253L279.51 95.2896C279.71 97.3867 279.71 99.6836 279.71 101.98L279.91 110.669C280.211 118.158 280.311 123.751 280.311 127.346C280.311 130.142 280.211 131.74 280.111 132.339C279.91 132.938 279.91 134.536 279.91 137.332L280.111 149.216C280.311 150.914 280.311 153.111 280.311 155.707C280.511 157.604 279.91 158.803 278.709 159.302C277.509 159.801 275.807 159.901 273.806 159.801H254.091C251.989 160.001 250.588 159.502 249.988 158.403C249.387 157.305 248.987 155.607 248.887 153.111C248.587 152.112 248.687 149.416 249.287 145.122C249.888 141.127 250.188 137.632 250.188 134.736C250.188 133.737 250.688 123.95 251.689 105.476C252.59 91.8942 252.99 84.5043 252.99 83.2061L253.39 61.9352L253.791 42.262L254.191 30.578L254.591 22.7886V13.701C254.591 8.10868 255.992 5.3125 258.895 5.3125C259.595 5.3125 260.196 5.41236 260.596 5.51223C262.397 5.61209 264.299 5.61209 266.1 5.61209C267.901 5.51223 269.503 5.51223 270.804 5.51223ZM213.06 27.1791C207.256 22.1859 201.852 18.2912 196.648 15.495C191.544 12.6989 187.341 11.2009 184.038 10.9013C180.836 10.6017 178.835 10.5019 178.334 10.5019C171.829 9.80281 164.524 9.40336 156.418 9.40336L147.911 9.20363C146.21 9.20363 144.509 9.20363 142.808 9.40336C142.498 9.42156 142.197 9.43976 141.907 9.45735L141.907 9.45738C140.605 9.53632 139.505 9.60309 138.604 9.60309C138.004 9.60309 137.404 9.50322 136.703 9.3035C136.002 9.10377 135.302 9.00391 134.701 9.00391H134.101C133.2 9.00391 132.7 9.70295 132.4 11.0012C132.1 12.2994 131.899 14.5963 131.699 17.8918L132.1 31.5731C132.138 32.5739 132.192 33.6489 132.248 34.7923L132.248 34.793C132.339 36.6159 132.438 38.6128 132.5 40.7605C132.6 44.2558 132.7 47.9507 132.7 51.7455L132.5 95.286L132.9 134.433C133 139.026 133.1 143.72 133.1 148.513C133.1 150.211 133.1 151.609 133.2 152.508C133.2 153.003 133.231 153.467 133.258 153.885C133.28 154.226 133.3 154.535 133.3 154.805C133.3 155.504 133.3 156.103 133.1 156.502C132.7 157.401 132.7 158.2 133.1 158.899C133.501 159.598 134.501 159.998 136.103 159.998H158.219C164.124 159.998 172.23 159.099 182.537 157.301C192.845 155.504 201.452 152.408 208.357 147.914C213.461 144.619 217.864 139.526 221.667 132.535C225.47 125.645 228.472 118.155 230.673 110.066C232.875 101.977 233.876 94.6869 233.876 88.1957C233.876 75.8126 232.475 64.4282 229.773 54.1422C226.971 43.8563 221.366 34.8686 212.86 27.3788L213.06 27.1791ZM216.163 126.144C210.959 135.531 204.354 142.222 196.448 146.316C188.242 150.511 179.135 152.308 169.127 151.709C169.127 142.222 169.127 135.231 169.327 130.937L169.528 102.976C169.528 98.6814 169.327 93.9878 168.827 89.0945C168.618 83.0049 168.437 78.353 168.311 75.1247L168.311 75.1217C168.195 72.1577 168.127 70.3944 168.127 69.8208C168.127 57.4377 168.327 47.6511 168.827 40.5608L169.728 20.8877C179.835 20.9875 188.842 23.4841 196.848 28.2776C204.654 33.071 211.159 40.2612 216.263 49.8481C221.366 59.435 223.968 72.2176 223.968 87.996C223.968 103.774 221.366 116.757 216.163 126.144Z" fill="white"/>
</mask>
<g mask="url(#mask0_637_1014)">
<path d="M-177.607 -2381.36L-106.22 -2360.61L566.311 367.697L149.482 246.533L-177.607 -2381.36Z" fill="#FF7A45"/>
<path d="M-177.607 -2381.36L-33.2669 193.413L98.0815 231.594L-177.607 -2381.36Z" fill="#49C17A"/>
<path d="M-146.312 -1791.16L-73.9674 -1770.13L615.415 963.078L192.994 840.289L-146.312 -1791.16Z" fill="#FFBF66"/>
<path d="M-92.6072 -1481.36L340.113 1177.24L120.255 1113.33L-92.6072 -1481.36Z" fill="#5CCEE5"/>
</g>
</svg>
