<svg width="472" height="604" viewBox="0 0 472 604" fill="none" xmlns="http://www.w3.org/2000/svg">
<g clip-path="url(#clip0_1_9594)">
<g filter="url(#filter0_f_1_9594)">
<circle cx="235.5" cy="55.5" r="388.5" fill="#49C17A"/>
</g>
<rect x="82.5" y="110.5" width="307" height="63" rx="15.5" fill="white"/>
<rect x="82.5" y="110.5" width="307" height="63" rx="15.5" stroke="#E0E0E0"/>
<g clip-path="url(#clip1_1_9594)">
<path d="M130 126H98V158H130V126Z" fill="#49C17A"/>
<path d="M101.647 143.907C103.702 146.117 105.655 148.49 108.693 149.292C110.417 149.747 111.235 149.341 112.861 149.108C114.602 148.858 116.302 148.77 118.048 148.633C120.882 148.411 123.166 147.55 125.427 145.856C125.642 145.696 126.147 145.329 126.303 145.156C126.637 144.786 126.303 144.296 125.826 144.445C124.82 145.237 123.775 145.976 122.632 146.563C121.269 147.263 119.814 147.618 118.282 147.758C116.366 147.933 114.481 148.005 112.571 148.292C111.514 148.45 110.776 148.767 109.651 148.627C106.542 148.237 104.312 145.457 102.289 143.324C102.014 143.033 100.962 141.703 100.701 141.643C100.6 141.619 100.475 141.613 100.376 141.643C100.077 141.732 100.08 142.083 100.217 142.302C100.467 142.7 101.284 143.518 101.647 143.907V143.907Z" fill="black"/>
<path d="M125.069 134.117C128.864 133.637 129.204 138.771 125.869 139.06C122.348 139.366 122 134.505 125.069 134.117Z" fill="black"/>
<path d="M99.9258 136.504C100.529 138.843 103.852 139.126 104.829 136.913C105.248 135.961 105.159 135.036 104.422 134.255C102.644 132.373 99.2604 133.922 99.9258 136.504Z" fill="black"/>
<path d="M125.027 135.429C126.29 135.173 126.651 137.17 125.248 137.17C124.058 137.17 124.018 135.634 125.027 135.429Z" fill="#FBFBFB"/>
<path d="M101.891 134.223C103.131 134.02 103.348 135.763 102.272 135.945C100.988 136.164 100.72 134.414 101.891 134.223Z" fill="#FBFBFB"/>
</g>
<path d="M146.881 136.344V134.455H158.138V136.344H153.599V149H151.412V136.344H146.881ZM162.578 142.523V149H160.455V134.455H162.55V139.866H162.685C162.941 139.279 163.331 138.813 163.857 138.467C164.382 138.122 165.069 137.949 165.917 137.949C166.665 137.949 167.318 138.103 167.877 138.411C168.44 138.718 168.876 139.178 169.184 139.788C169.496 140.394 169.652 141.152 169.652 142.061V149H167.529V142.317C167.529 141.517 167.323 140.896 166.911 140.456C166.499 140.011 165.926 139.788 165.192 139.788C164.69 139.788 164.24 139.895 163.843 140.108C163.45 140.321 163.14 140.634 162.912 141.045C162.69 141.453 162.578 141.945 162.578 142.523ZM177.188 149.22C176.113 149.22 175.187 148.991 174.411 148.531C173.639 148.067 173.042 147.416 172.621 146.578C172.204 145.735 171.996 144.748 171.996 143.616C171.996 142.499 172.204 141.514 172.621 140.662C173.042 139.81 173.63 139.144 174.382 138.666C175.14 138.188 176.025 137.949 177.039 137.949C177.654 137.949 178.251 138.051 178.828 138.254C179.406 138.458 179.925 138.777 180.384 139.213C180.843 139.649 181.205 140.214 181.471 140.911C181.736 141.602 181.868 142.442 181.868 143.432V144.185H173.196V142.594H179.787C179.787 142.035 179.674 141.54 179.446 141.109C179.219 140.674 178.9 140.33 178.488 140.08C178.08 139.829 177.602 139.703 177.053 139.703C176.456 139.703 175.935 139.85 175.49 140.143C175.05 140.432 174.709 140.811 174.468 141.28C174.231 141.744 174.113 142.248 174.113 142.793V144.036C174.113 144.765 174.24 145.385 174.496 145.896C174.757 146.408 175.119 146.798 175.583 147.068C176.047 147.333 176.589 147.466 177.209 147.466C177.612 147.466 177.979 147.409 178.31 147.295C178.641 147.177 178.928 147.002 179.169 146.77C179.411 146.538 179.596 146.251 179.723 145.911L181.733 146.273C181.572 146.865 181.283 147.383 180.867 147.828C180.455 148.268 179.936 148.612 179.311 148.858C178.691 149.099 177.983 149.22 177.188 149.22ZM201.428 134.455V149H199.411L192.017 138.332H191.882V149H189.688V134.455H191.719L199.12 145.136H199.255V134.455H201.428ZM209.161 149.22C208.086 149.22 207.16 148.991 206.384 148.531C205.612 148.067 205.015 147.416 204.594 146.578C204.177 145.735 203.969 144.748 203.969 143.616C203.969 142.499 204.177 141.514 204.594 140.662C205.015 139.81 205.602 139.144 206.355 138.666C207.113 138.188 207.998 137.949 209.011 137.949C209.627 137.949 210.223 138.051 210.801 138.254C211.379 138.458 211.897 138.777 212.357 139.213C212.816 139.649 213.178 140.214 213.443 140.911C213.708 141.602 213.841 142.442 213.841 143.432V144.185H205.169V142.594H211.76C211.76 142.035 211.646 141.54 211.419 141.109C211.192 140.674 210.872 140.33 210.46 140.08C210.053 139.829 209.575 139.703 209.026 139.703C208.429 139.703 207.908 139.85 207.463 140.143C207.023 140.432 206.682 140.811 206.44 141.28C206.204 141.744 206.085 142.248 206.085 142.793V144.036C206.085 144.765 206.213 145.385 206.469 145.896C206.729 146.408 207.091 146.798 207.555 147.068C208.019 147.333 208.562 147.466 209.182 147.466C209.584 147.466 209.951 147.409 210.283 147.295C210.614 147.177 210.901 147.002 211.142 146.77C211.384 146.538 211.568 146.251 211.696 145.911L213.706 146.273C213.545 146.865 213.256 147.383 212.839 147.828C212.428 148.268 211.909 148.612 211.284 148.858C210.664 149.099 209.956 149.22 209.161 149.22ZM221.289 138.091V139.795H215.331V138.091H221.289ZM216.929 135.477H219.052V145.797C219.052 146.209 219.114 146.519 219.237 146.727C219.36 146.931 219.519 147.071 219.713 147.146C219.912 147.217 220.127 147.253 220.359 147.253C220.529 147.253 220.679 147.241 220.806 147.217C220.934 147.194 221.034 147.175 221.105 147.161L221.488 148.915C221.365 148.962 221.19 149.009 220.963 149.057C220.735 149.109 220.451 149.137 220.11 149.142C219.552 149.152 219.031 149.052 218.548 148.844C218.065 148.635 217.674 148.313 217.376 147.878C217.078 147.442 216.929 146.895 216.929 146.237V135.477ZM226.004 149L222.793 138.091H224.988L227.126 146.102H227.232L229.377 138.091H231.572L233.702 146.067H233.809L235.933 138.091H238.127L234.924 149H232.758L230.542 141.124H230.379L228.163 149H226.004ZM244.406 149.22C243.383 149.22 242.49 148.986 241.728 148.517C240.966 148.048 240.374 147.393 239.952 146.55C239.531 145.707 239.32 144.722 239.32 143.595C239.32 142.464 239.531 141.474 239.952 140.626C240.374 139.779 240.966 139.121 241.728 138.652C242.49 138.183 243.383 137.949 244.406 137.949C245.428 137.949 246.321 138.183 247.083 138.652C247.845 139.121 248.437 139.779 248.859 140.626C249.28 141.474 249.491 142.464 249.491 143.595C249.491 144.722 249.28 145.707 248.859 146.55C248.437 147.393 247.845 148.048 247.083 148.517C246.321 148.986 245.428 149.22 244.406 149.22ZM244.413 147.438C245.076 147.438 245.625 147.262 246.06 146.912C246.496 146.562 246.818 146.095 247.026 145.513C247.239 144.93 247.346 144.289 247.346 143.588C247.346 142.892 247.239 142.253 247.026 141.67C246.818 141.083 246.496 140.612 246.06 140.257C245.625 139.902 245.076 139.724 244.413 139.724C243.745 139.724 243.191 139.902 242.751 140.257C242.315 140.612 241.991 141.083 241.778 141.67C241.569 142.253 241.465 142.892 241.465 143.588C241.465 144.289 241.569 144.93 241.778 145.513C241.991 146.095 242.315 146.562 242.751 146.912C243.191 147.262 243.745 147.438 244.413 147.438ZM251.861 149V138.091H253.914V139.824H254.027C254.226 139.237 254.577 138.775 255.078 138.439C255.585 138.098 256.158 137.928 256.797 137.928C256.93 137.928 257.086 137.932 257.266 137.942C257.451 137.951 257.595 137.963 257.699 137.977V140.009C257.614 139.985 257.462 139.959 257.245 139.93C257.027 139.897 256.809 139.881 256.591 139.881C256.089 139.881 255.642 139.987 255.249 140.2C254.861 140.409 254.553 140.7 254.326 141.074C254.098 141.443 253.985 141.865 253.985 142.338V149H251.861ZM261.49 145.3L261.476 142.707H261.845L266.192 138.091H268.734L263.777 143.347H263.443L261.49 145.3ZM259.537 149V134.455H261.661V149H259.537ZM266.426 149L262.52 143.815L263.983 142.331L269.033 149H266.426ZM276.133 149V134.455H278.328V140.776H285.579V134.455H287.781V149H285.579V142.658H278.328V149H276.133ZM297.717 144.476V138.091H299.848V149H297.76V147.111H297.646C297.395 147.693 296.993 148.179 296.439 148.567C295.889 148.95 295.205 149.142 294.386 149.142C293.685 149.142 293.065 148.988 292.525 148.68C291.99 148.368 291.569 147.906 291.261 147.295C290.958 146.685 290.806 145.929 290.806 145.03V138.091H292.93V144.774C292.93 145.518 293.136 146.109 293.548 146.55C293.96 146.99 294.495 147.21 295.153 147.21C295.551 147.21 295.946 147.111 296.339 146.912C296.737 146.713 297.066 146.412 297.326 146.01C297.592 145.607 297.722 145.096 297.717 144.476ZM304.825 142.523V149H302.701V138.091H304.739V139.866H304.874C305.125 139.289 305.518 138.825 306.053 138.474C306.593 138.124 307.272 137.949 308.092 137.949C308.835 137.949 309.486 138.105 310.045 138.418C310.603 138.725 311.037 139.185 311.344 139.795C311.652 140.406 311.806 141.161 311.806 142.061V149H309.683V142.317C309.683 141.526 309.477 140.908 309.065 140.463C308.653 140.013 308.087 139.788 307.367 139.788C306.875 139.788 306.437 139.895 306.053 140.108C305.674 140.321 305.374 140.634 305.151 141.045C304.933 141.453 304.825 141.945 304.825 142.523ZM319.746 138.091V139.795H313.788V138.091H319.746ZM315.386 135.477H317.509V145.797C317.509 146.209 317.571 146.519 317.694 146.727C317.817 146.931 317.976 147.071 318.17 147.146C318.369 147.217 318.584 147.253 318.816 147.253C318.987 147.253 319.136 147.241 319.263 147.217C319.391 147.194 319.491 147.175 319.562 147.161L319.945 148.915C319.822 148.962 319.647 149.009 319.42 149.057C319.192 149.109 318.908 149.137 318.567 149.142C318.009 149.152 317.488 149.052 317.005 148.844C316.522 148.635 316.131 148.313 315.833 147.878C315.535 147.442 315.386 146.895 315.386 146.237V135.477ZM326.68 149.22C325.605 149.22 324.68 148.991 323.903 148.531C323.131 148.067 322.535 147.416 322.113 146.578C321.697 145.735 321.488 144.748 321.488 143.616C321.488 142.499 321.697 141.514 322.113 140.662C322.535 139.81 323.122 139.144 323.875 138.666C324.632 138.188 325.518 137.949 326.531 137.949C327.146 137.949 327.743 138.051 328.321 138.254C328.898 138.458 329.417 138.777 329.876 139.213C330.335 139.649 330.698 140.214 330.963 140.911C331.228 141.602 331.36 142.442 331.36 143.432V144.185H322.689V142.594H329.279C329.279 142.035 329.166 141.54 328.939 141.109C328.711 140.674 328.392 140.33 327.98 140.08C327.573 139.829 327.094 139.703 326.545 139.703C325.949 139.703 325.428 139.85 324.983 140.143C324.542 140.432 324.201 140.811 323.96 141.28C323.723 141.744 323.605 142.248 323.605 142.793V144.036C323.605 144.765 323.733 145.385 323.988 145.896C324.249 146.408 324.611 146.798 325.075 147.068C325.539 147.333 326.081 147.466 326.701 147.466C327.104 147.466 327.471 147.409 327.802 147.295C328.134 147.177 328.42 147.002 328.662 146.77C328.903 146.538 329.088 146.251 329.216 145.911L331.225 146.273C331.065 146.865 330.776 147.383 330.359 147.828C329.947 148.268 329.429 148.612 328.804 148.858C328.183 149.099 327.475 149.22 326.68 149.22ZM333.717 149V138.091H335.769V139.824H335.883C336.082 139.237 336.432 138.775 336.934 138.439C337.441 138.098 338.013 137.928 338.653 137.928C338.785 137.928 338.942 137.932 339.121 137.942C339.306 137.951 339.451 137.963 339.555 137.977V140.009C339.469 139.985 339.318 139.959 339.1 139.93C338.882 139.897 338.665 139.881 338.447 139.881C337.945 139.881 337.497 139.987 337.104 140.2C336.716 140.409 336.408 140.7 336.181 141.074C335.954 141.443 335.84 141.865 335.84 142.338V149H333.717Z" fill="black"/>
<rect x="82.5" y="190.5" width="307" height="63" rx="15.5" fill="white"/>
<rect x="82.5" y="190.5" width="307" height="63" rx="15.5" stroke="#E0E0E0"/>
<g clip-path="url(#clip2_1_9594)">
<path d="M130 206H98V238H130V206Z" fill="#FFBF66"/>
<path d="M101.647 223.907C103.702 226.117 105.655 228.49 108.693 229.292C110.417 229.747 111.235 229.341 112.861 229.108C114.602 228.858 116.302 228.77 118.048 228.633C120.882 228.411 123.166 227.55 125.427 225.856C125.642 225.696 126.147 225.329 126.303 225.156C126.637 224.786 126.303 224.296 125.826 224.445C124.82 225.237 123.775 225.976 122.632 226.563C121.269 227.263 119.814 227.618 118.282 227.758C116.366 227.933 114.481 228.005 112.571 228.292C111.514 228.45 110.776 228.767 109.651 228.627C106.542 228.237 104.312 225.457 102.289 223.324C102.014 223.033 100.962 221.703 100.701 221.643C100.6 221.619 100.475 221.613 100.376 221.643C100.077 221.732 100.08 222.083 100.217 222.302C100.467 222.7 101.284 223.518 101.647 223.907V223.907Z" fill="black"/>
<path d="M125.069 214.117C128.864 213.637 129.204 218.771 125.869 219.06C122.348 219.366 122 214.505 125.069 214.117Z" fill="black"/>
<path d="M99.9258 216.504C100.529 218.843 103.852 219.126 104.829 216.913C105.248 215.961 105.159 215.036 104.422 214.255C102.644 212.373 99.2604 213.922 99.9258 216.504Z" fill="black"/>
<path d="M125.027 215.429C126.29 215.173 126.651 217.17 125.248 217.17C124.058 217.17 124.018 215.634 125.027 215.429Z" fill="#FBFBFB"/>
<path d="M101.891 214.223C103.131 214.02 103.348 215.763 102.272 215.945C100.988 216.164 100.72 214.414 101.891 214.223Z" fill="#FBFBFB"/>
</g>
<path d="M146.881 216.344V214.455H158.138V216.344H153.599V229H151.412V216.344H146.881ZM162.578 222.523V229H160.455V214.455H162.55V219.866H162.685C162.941 219.279 163.331 218.813 163.857 218.467C164.382 218.122 165.069 217.949 165.917 217.949C166.665 217.949 167.318 218.103 167.877 218.411C168.44 218.718 168.876 219.178 169.184 219.788C169.496 220.394 169.652 221.152 169.652 222.061V229H167.529V222.317C167.529 221.517 167.323 220.896 166.911 220.456C166.499 220.011 165.926 219.788 165.192 219.788C164.69 219.788 164.24 219.895 163.843 220.108C163.45 220.321 163.14 220.634 162.912 221.045C162.69 221.453 162.578 221.945 162.578 222.523ZM177.188 229.22C176.113 229.22 175.187 228.991 174.411 228.531C173.639 228.067 173.042 227.416 172.621 226.578C172.204 225.735 171.996 224.748 171.996 223.616C171.996 222.499 172.204 221.514 172.621 220.662C173.042 219.81 173.63 219.144 174.382 218.666C175.14 218.188 176.025 217.949 177.039 217.949C177.654 217.949 178.251 218.051 178.828 218.254C179.406 218.458 179.925 218.777 180.384 219.213C180.843 219.649 181.205 220.214 181.471 220.911C181.736 221.602 181.868 222.442 181.868 223.432V224.185H173.196V222.594H179.787C179.787 222.035 179.674 221.54 179.446 221.109C179.219 220.674 178.9 220.33 178.488 220.08C178.08 219.829 177.602 219.703 177.053 219.703C176.456 219.703 175.935 219.85 175.49 220.143C175.05 220.432 174.709 220.811 174.468 221.28C174.231 221.744 174.113 222.248 174.113 222.793V224.036C174.113 224.765 174.24 225.385 174.496 225.896C174.757 226.408 175.119 226.798 175.583 227.068C176.047 227.333 176.589 227.466 177.209 227.466C177.612 227.466 177.979 227.409 178.31 227.295C178.641 227.177 178.928 227.002 179.169 226.77C179.411 226.538 179.596 226.251 179.723 225.911L181.733 226.273C181.572 226.865 181.283 227.383 180.867 227.828C180.455 228.268 179.936 228.612 179.311 228.858C178.691 229.099 177.983 229.22 177.188 229.22ZM188.971 216.344V214.455H200.228V216.344H195.689V229H193.502V216.344H188.971ZM205.664 229.22C204.59 229.22 203.664 228.991 202.887 228.531C202.116 228.067 201.519 227.416 201.098 226.578C200.681 225.735 200.473 224.748 200.473 223.616C200.473 222.499 200.681 221.514 201.098 220.662C201.519 219.81 202.106 219.144 202.859 218.666C203.617 218.188 204.502 217.949 205.515 217.949C206.131 217.949 206.727 218.051 207.305 218.254C207.883 218.458 208.401 218.777 208.86 219.213C209.32 219.649 209.682 220.214 209.947 220.911C210.212 221.602 210.345 222.442 210.345 223.432V224.185H201.673V222.594H208.264C208.264 222.035 208.15 221.54 207.923 221.109C207.696 220.674 207.376 220.33 206.964 220.08C206.557 219.829 206.079 219.703 205.529 219.703C204.933 219.703 204.412 219.85 203.967 220.143C203.527 220.432 203.186 220.811 202.944 221.28C202.708 221.744 202.589 222.248 202.589 222.793V224.036C202.589 224.765 202.717 225.385 202.973 225.896C203.233 226.408 203.595 226.798 204.059 227.068C204.523 227.333 205.065 227.466 205.686 227.466C206.088 227.466 206.455 227.409 206.787 227.295C207.118 227.177 207.404 227.002 207.646 226.77C207.887 226.538 208.072 226.251 208.2 225.911L210.21 226.273C210.049 226.865 209.76 227.383 209.343 227.828C208.931 228.268 208.413 228.612 207.788 228.858C207.168 229.099 206.46 229.22 205.664 229.22ZM217.296 229.22C216.24 229.22 215.331 228.981 214.569 228.503C213.811 228.02 213.229 227.355 212.822 226.507C212.415 225.66 212.211 224.689 212.211 223.595C212.211 222.487 212.419 221.509 212.836 220.662C213.253 219.81 213.84 219.144 214.597 218.666C215.355 218.188 216.247 217.949 217.275 217.949C218.103 217.949 218.842 218.103 219.491 218.411C220.139 218.714 220.663 219.14 221.06 219.689C221.463 220.238 221.702 220.88 221.778 221.614H219.711C219.597 221.102 219.337 220.662 218.93 220.293C218.527 219.923 217.987 219.739 217.31 219.739C216.719 219.739 216.2 219.895 215.755 220.207C215.315 220.515 214.971 220.955 214.725 221.528C214.479 222.097 214.356 222.769 214.356 223.545C214.356 224.341 214.477 225.027 214.718 225.605C214.96 226.183 215.3 226.63 215.741 226.947C216.186 227.265 216.709 227.423 217.31 227.423C217.713 227.423 218.077 227.35 218.404 227.203C218.736 227.052 219.013 226.836 219.235 226.557C219.462 226.277 219.621 225.941 219.711 225.548H221.778C221.702 226.254 221.472 226.884 221.089 227.438C220.705 227.991 220.192 228.427 219.548 228.744C218.908 229.062 218.158 229.22 217.296 229.22ZM226.172 222.523V229H224.049V214.455H226.144V219.866H226.279C226.534 219.279 226.925 218.813 227.451 218.467C227.976 218.122 228.663 217.949 229.51 217.949C230.258 217.949 230.912 218.103 231.471 218.411C232.034 218.718 232.47 219.178 232.777 219.788C233.09 220.394 233.246 221.152 233.246 222.061V229H231.123V222.317C231.123 221.517 230.917 220.896 230.505 220.456C230.093 220.011 229.52 219.788 228.786 219.788C228.284 219.788 227.834 219.895 227.436 220.108C227.043 220.321 226.733 220.634 226.506 221.045C226.283 221.453 226.172 221.945 226.172 222.523ZM254.178 221.727C254.178 223.28 253.894 224.616 253.326 225.733C252.758 226.846 251.979 227.703 250.989 228.304C250.004 228.901 248.885 229.199 247.63 229.199C246.371 229.199 245.246 228.901 244.256 228.304C243.272 227.703 242.495 226.843 241.927 225.726C241.359 224.608 241.075 223.276 241.075 221.727C241.075 220.174 241.359 218.841 241.927 217.729C242.495 216.611 243.272 215.754 244.256 215.158C245.246 214.556 246.371 214.256 247.63 214.256C248.885 214.256 250.004 214.556 250.989 215.158C251.979 215.754 252.758 216.611 253.326 217.729C253.894 218.841 254.178 220.174 254.178 221.727ZM252.005 221.727C252.005 220.544 251.813 219.547 251.43 218.737C251.051 217.923 250.53 217.307 249.867 216.891C249.209 216.469 248.463 216.259 247.63 216.259C246.792 216.259 246.044 216.469 245.386 216.891C244.728 217.307 244.207 217.923 243.823 218.737C243.444 219.547 243.255 220.544 243.255 221.727C243.255 222.911 243.444 223.91 243.823 224.724C244.207 225.534 244.728 226.15 245.386 226.571C246.044 226.988 246.792 227.196 247.63 227.196C248.463 227.196 249.209 226.988 249.867 226.571C250.53 226.15 251.051 225.534 251.43 224.724C251.813 223.91 252.005 222.911 252.005 221.727ZM256.744 229V218.091H258.797V219.824H258.91C259.109 219.237 259.459 218.775 259.961 218.439C260.468 218.098 261.041 217.928 261.68 217.928C261.813 217.928 261.969 217.932 262.149 217.942C262.333 217.951 262.478 217.963 262.582 217.977V220.009C262.497 219.985 262.345 219.959 262.127 219.93C261.91 219.897 261.692 219.881 261.474 219.881C260.972 219.881 260.525 219.987 260.132 220.2C259.743 220.409 259.436 220.7 259.208 221.074C258.981 221.443 258.868 221.865 258.868 222.338V229H256.744ZM267.497 229.241C266.806 229.241 266.181 229.114 265.622 228.858C265.063 228.598 264.62 228.221 264.294 227.729C263.972 227.236 263.811 226.633 263.811 225.918C263.811 225.302 263.929 224.795 264.166 224.398C264.403 224 264.722 223.685 265.125 223.453C265.527 223.221 265.977 223.046 266.474 222.928C266.971 222.809 267.478 222.719 267.994 222.658C268.647 222.582 269.178 222.52 269.585 222.473C269.992 222.421 270.288 222.338 270.473 222.224C270.657 222.111 270.75 221.926 270.75 221.67V221.621C270.75 221 270.574 220.52 270.224 220.179C269.878 219.838 269.362 219.668 268.676 219.668C267.961 219.668 267.397 219.826 266.985 220.143C266.578 220.456 266.297 220.804 266.14 221.188L264.145 220.733C264.381 220.07 264.727 219.535 265.181 219.128C265.641 218.716 266.169 218.418 266.765 218.233C267.362 218.044 267.989 217.949 268.647 217.949C269.083 217.949 269.545 218.001 270.032 218.105C270.525 218.205 270.984 218.389 271.41 218.659C271.841 218.929 272.194 219.315 272.468 219.817C272.743 220.314 272.88 220.96 272.88 221.756V229H270.806V227.509H270.721C270.584 227.783 270.378 228.053 270.103 228.318C269.829 228.583 269.476 228.804 269.045 228.979C268.614 229.154 268.098 229.241 267.497 229.241ZM267.958 227.537C268.546 227.537 269.047 227.421 269.464 227.189C269.886 226.957 270.205 226.654 270.423 226.28C270.645 225.901 270.757 225.496 270.757 225.065V223.659C270.681 223.735 270.534 223.806 270.316 223.872C270.103 223.934 269.859 223.988 269.585 224.036C269.31 224.078 269.043 224.118 268.782 224.156C268.522 224.189 268.304 224.218 268.129 224.241C267.717 224.294 267.341 224.381 267 224.504C266.663 224.627 266.394 224.805 266.19 225.037C265.991 225.264 265.892 225.567 265.892 225.946C265.892 226.472 266.086 226.869 266.474 227.139C266.862 227.404 267.357 227.537 267.958 227.537ZM280.304 229.22C279.248 229.22 278.339 228.981 277.577 228.503C276.819 228.02 276.237 227.355 275.83 226.507C275.422 225.66 275.219 224.689 275.219 223.595C275.219 222.487 275.427 221.509 275.844 220.662C276.26 219.81 276.848 219.144 277.605 218.666C278.363 218.188 279.255 217.949 280.283 217.949C281.111 217.949 281.85 218.103 282.499 218.411C283.147 218.714 283.67 219.14 284.068 219.689C284.471 220.238 284.71 220.88 284.786 221.614H282.719C282.605 221.102 282.345 220.662 281.938 220.293C281.535 219.923 280.995 219.739 280.318 219.739C279.726 219.739 279.208 219.895 278.763 220.207C278.322 220.515 277.979 220.955 277.733 221.528C277.487 222.097 277.364 222.769 277.364 223.545C277.364 224.341 277.484 225.027 277.726 225.605C277.967 226.183 278.308 226.63 278.749 226.947C279.194 227.265 279.717 227.423 280.318 227.423C280.721 227.423 281.085 227.35 281.412 227.203C281.743 227.052 282.02 226.836 282.243 226.557C282.47 226.277 282.629 225.941 282.719 225.548H284.786C284.71 226.254 284.48 226.884 284.097 227.438C283.713 227.991 283.199 228.427 282.555 228.744C281.916 229.062 281.166 229.22 280.304 229.22ZM289.18 214.455V229H287.056V214.455H289.18ZM296.739 229.22C295.664 229.22 294.738 228.991 293.962 228.531C293.19 228.067 292.593 227.416 292.172 226.578C291.755 225.735 291.547 224.748 291.547 223.616C291.547 222.499 291.755 221.514 292.172 220.662C292.593 219.81 293.18 219.144 293.933 218.666C294.691 218.188 295.576 217.949 296.589 217.949C297.205 217.949 297.802 218.051 298.379 218.254C298.957 218.458 299.475 218.777 299.935 219.213C300.394 219.649 300.756 220.214 301.021 220.911C301.286 221.602 301.419 222.442 301.419 223.432V224.185H292.747V222.594H299.338C299.338 222.035 299.224 221.54 298.997 221.109C298.77 220.674 298.45 220.33 298.038 220.08C297.631 219.829 297.153 219.703 296.604 219.703C296.007 219.703 295.486 219.85 295.041 220.143C294.601 220.432 294.26 220.811 294.018 221.28C293.782 221.744 293.663 222.248 293.663 222.793V224.036C293.663 224.765 293.791 225.385 294.047 225.896C294.307 226.408 294.67 226.798 295.134 227.068C295.598 227.333 296.14 227.466 296.76 227.466C297.162 227.466 297.529 227.409 297.861 227.295C298.192 227.177 298.479 227.002 298.72 226.77C298.962 226.538 299.146 226.251 299.274 225.911L301.284 226.273C301.123 226.865 300.834 227.383 300.418 227.828C300.006 228.268 299.487 228.612 298.862 228.858C298.242 229.099 297.534 229.22 296.739 229.22Z" fill="black"/>
<rect x="82.5" y="270.5" width="307" height="63" rx="15.5" fill="white"/>
<rect x="82.5" y="270.5" width="307" height="63" rx="15.5" stroke="#E0E0E0"/>
<g clip-path="url(#clip3_1_9594)">
<path d="M130 286H98V318H130V286Z" fill="#F3655B"/>
<path d="M101.647 303.907C103.702 306.117 105.655 308.49 108.693 309.292C110.417 309.747 111.235 309.341 112.861 309.108C114.602 308.858 116.302 308.77 118.048 308.633C120.882 308.411 123.166 307.55 125.427 305.856C125.642 305.696 126.147 305.329 126.303 305.156C126.637 304.786 126.303 304.296 125.826 304.445C124.82 305.237 123.775 305.976 122.632 306.563C121.269 307.263 119.814 307.618 118.282 307.758C116.366 307.933 114.481 308.005 112.571 308.292C111.514 308.45 110.776 308.767 109.651 308.627C106.542 308.237 104.312 305.457 102.289 303.324C102.014 303.033 100.962 301.703 100.701 301.643C100.6 301.619 100.475 301.613 100.376 301.643C100.077 301.732 100.08 302.083 100.217 302.302C100.467 302.7 101.284 303.518 101.647 303.907V303.907Z" fill="black"/>
<path d="M125.069 294.117C128.864 293.637 129.204 298.771 125.869 299.06C122.348 299.366 122 294.505 125.069 294.117Z" fill="black"/>
<path d="M99.9258 296.504C100.529 298.843 103.852 299.126 104.829 296.913C105.248 295.961 105.159 295.036 104.422 294.255C102.644 292.373 99.2604 293.922 99.9258 296.504Z" fill="black"/>
<path d="M125.027 295.429C126.29 295.173 126.651 297.17 125.248 297.17C124.058 297.17 124.018 295.634 125.027 295.429Z" fill="#FBFBFB"/>
<path d="M101.891 294.223C103.131 294.02 103.348 295.763 102.272 295.945C100.988 296.164 100.72 294.414 101.891 294.223Z" fill="#FBFBFB"/>
</g>
<path d="M146.881 296.344V294.455H158.138V296.344H153.599V309H151.412V296.344H146.881ZM162.578 302.523V309H160.455V294.455H162.55V299.866H162.685C162.941 299.279 163.331 298.813 163.857 298.467C164.382 298.122 165.069 297.949 165.917 297.949C166.665 297.949 167.318 298.103 167.877 298.411C168.44 298.718 168.876 299.178 169.184 299.788C169.496 300.394 169.652 301.152 169.652 302.061V309H167.529V302.317C167.529 301.517 167.323 300.896 166.911 300.456C166.499 300.011 165.926 299.788 165.192 299.788C164.69 299.788 164.24 299.895 163.843 300.108C163.45 300.321 163.14 300.634 162.912 301.045C162.69 301.453 162.578 301.945 162.578 302.523ZM177.188 309.22C176.113 309.22 175.187 308.991 174.411 308.531C173.639 308.067 173.042 307.416 172.621 306.578C172.204 305.735 171.996 304.748 171.996 303.616C171.996 302.499 172.204 301.514 172.621 300.662C173.042 299.81 173.63 299.144 174.382 298.666C175.14 298.188 176.025 297.949 177.039 297.949C177.654 297.949 178.251 298.051 178.828 298.254C179.406 298.458 179.925 298.777 180.384 299.213C180.843 299.649 181.205 300.214 181.471 300.911C181.736 301.602 181.868 302.442 181.868 303.432V304.185H173.196V302.594H179.787C179.787 302.035 179.674 301.54 179.446 301.109C179.219 300.674 178.9 300.33 178.488 300.08C178.08 299.829 177.602 299.703 177.053 299.703C176.456 299.703 175.935 299.85 175.49 300.143C175.05 300.432 174.709 300.811 174.468 301.28C174.231 301.744 174.113 302.248 174.113 302.793V304.036C174.113 304.765 174.24 305.385 174.496 305.896C174.757 306.408 175.119 306.798 175.583 307.068C176.047 307.333 176.589 307.466 177.209 307.466C177.612 307.466 177.979 307.409 178.31 307.295C178.641 307.177 178.928 307.002 179.169 306.77C179.411 306.538 179.596 306.251 179.723 305.911L181.733 306.273C181.572 306.865 181.283 307.383 180.867 307.828C180.455 308.268 179.936 308.612 179.311 308.858C178.691 309.099 177.983 309.22 177.188 309.22ZM189.688 294.455H192.351L196.982 305.761H197.152L201.783 294.455H204.446V309H202.358V298.474H202.223L197.934 308.979H196.201L191.911 298.467H191.776V309H189.688V294.455ZM212.062 309.22C211.039 309.22 210.147 308.986 209.384 308.517C208.622 308.048 208.03 307.393 207.609 306.55C207.187 305.707 206.977 304.722 206.977 303.595C206.977 302.464 207.187 301.474 207.609 300.626C208.03 299.779 208.622 299.121 209.384 298.652C210.147 298.183 211.039 297.949 212.062 297.949C213.085 297.949 213.977 298.183 214.739 298.652C215.502 299.121 216.094 299.779 216.515 300.626C216.936 301.474 217.147 302.464 217.147 303.595C217.147 304.722 216.936 305.707 216.515 306.55C216.094 307.393 215.502 308.048 214.739 308.517C213.977 308.986 213.085 309.22 212.062 309.22ZM212.069 307.438C212.732 307.438 213.281 307.262 213.717 306.912C214.152 306.562 214.474 306.095 214.683 305.513C214.896 304.93 215.002 304.289 215.002 303.588C215.002 302.892 214.896 302.253 214.683 301.67C214.474 301.083 214.152 300.612 213.717 300.257C213.281 299.902 212.732 299.724 212.069 299.724C211.401 299.724 210.847 299.902 210.407 300.257C209.971 300.612 209.647 301.083 209.434 301.67C209.226 302.253 209.121 302.892 209.121 303.588C209.121 304.289 209.226 304.93 209.434 305.513C209.647 306.095 209.971 306.562 210.407 306.912C210.847 307.262 211.401 307.438 212.069 307.438ZM221.641 302.523V309H219.517V298.091H221.556V299.866H221.691C221.942 299.289 222.335 298.825 222.87 298.474C223.409 298.124 224.089 297.949 224.908 297.949C225.651 297.949 226.302 298.105 226.861 298.418C227.42 298.725 227.853 299.185 228.161 299.795C228.469 300.406 228.623 301.161 228.623 302.061V309H226.499V302.317C226.499 301.526 226.293 300.908 225.881 300.463C225.469 300.013 224.903 299.788 224.184 299.788C223.691 299.788 223.253 299.895 222.87 300.108C222.491 300.321 222.19 300.634 221.968 301.045C221.75 301.453 221.641 301.945 221.641 302.523ZM236.066 309.22C235.043 309.22 234.15 308.986 233.388 308.517C232.626 308.048 232.034 307.393 231.613 306.55C231.191 305.707 230.98 304.722 230.98 303.595C230.98 302.464 231.191 301.474 231.613 300.626C232.034 299.779 232.626 299.121 233.388 298.652C234.15 298.183 235.043 297.949 236.066 297.949C237.088 297.949 237.981 298.183 238.743 298.652C239.506 299.121 240.097 299.779 240.519 300.626C240.94 301.474 241.151 302.464 241.151 303.595C241.151 304.722 240.94 305.707 240.519 306.55C240.097 307.393 239.506 308.048 238.743 308.517C237.981 308.986 237.088 309.22 236.066 309.22ZM236.073 307.438C236.736 307.438 237.285 307.262 237.721 306.912C238.156 306.562 238.478 306.095 238.686 305.513C238.9 304.93 239.006 304.289 239.006 303.588C239.006 302.892 238.9 302.253 238.686 301.67C238.478 301.083 238.156 300.612 237.721 300.257C237.285 299.902 236.736 299.724 236.073 299.724C235.405 299.724 234.851 299.902 234.411 300.257C233.975 300.612 233.651 301.083 233.438 301.67C233.23 302.253 233.125 302.892 233.125 303.588C233.125 304.289 233.23 304.93 233.438 305.513C233.651 306.095 233.975 306.562 234.411 306.912C234.851 307.262 235.405 307.438 236.073 307.438ZM243.521 313.091V298.091H245.595V299.859H245.773C245.896 299.632 246.073 299.369 246.305 299.071C246.537 298.773 246.859 298.512 247.271 298.29C247.683 298.062 248.228 297.949 248.905 297.949C249.786 297.949 250.571 298.171 251.263 298.616C251.954 299.062 252.496 299.703 252.889 300.541C253.287 301.379 253.486 302.388 253.486 303.567C253.486 304.746 253.289 305.757 252.896 306.599C252.503 307.437 251.964 308.084 251.277 308.538C250.59 308.988 249.807 309.213 248.926 309.213C248.263 309.213 247.721 309.102 247.3 308.879C246.883 308.657 246.556 308.396 246.32 308.098C246.083 307.8 245.901 307.535 245.773 307.303H245.645V313.091H243.521ZM245.602 303.545C245.602 304.312 245.714 304.985 245.936 305.562C246.159 306.14 246.481 306.592 246.902 306.919C247.323 307.241 247.839 307.402 248.45 307.402C249.085 307.402 249.615 307.234 250.041 306.898C250.467 306.557 250.789 306.095 251.007 305.513C251.23 304.93 251.341 304.275 251.341 303.545C251.341 302.826 251.232 302.179 251.014 301.607C250.801 301.034 250.479 300.581 250.048 300.25C249.622 299.919 249.089 299.753 248.45 299.753C247.835 299.753 247.314 299.911 246.888 300.229C246.466 300.546 246.147 300.989 245.929 301.557C245.711 302.125 245.602 302.788 245.602 303.545ZM260.46 309.22C259.438 309.22 258.545 308.986 257.783 308.517C257.02 308.048 256.429 307.393 256.007 306.55C255.586 305.707 255.375 304.722 255.375 303.595C255.375 302.464 255.586 301.474 256.007 300.626C256.429 299.779 257.02 299.121 257.783 298.652C258.545 298.183 259.438 297.949 260.46 297.949C261.483 297.949 262.375 298.183 263.138 298.652C263.9 299.121 264.492 299.779 264.913 300.626C265.335 301.474 265.545 302.464 265.545 303.595C265.545 304.722 265.335 305.707 264.913 306.55C264.492 307.393 263.9 308.048 263.138 308.517C262.375 308.986 261.483 309.22 260.46 309.22ZM260.467 307.438C261.13 307.438 261.679 307.262 262.115 306.912C262.551 306.562 262.873 306.095 263.081 305.513C263.294 304.93 263.401 304.289 263.401 303.588C263.401 302.892 263.294 302.253 263.081 301.67C262.873 301.083 262.551 300.612 262.115 300.257C261.679 299.902 261.13 299.724 260.467 299.724C259.8 299.724 259.246 299.902 258.805 300.257C258.37 300.612 258.045 301.083 257.832 301.67C257.624 302.253 257.52 302.892 257.52 303.588C257.52 304.289 257.624 304.93 257.832 305.513C258.045 306.095 258.37 306.562 258.805 306.912C259.246 307.262 259.8 307.438 260.467 307.438ZM270.039 294.455V309H267.916V294.455H270.039ZM274.239 313.091C273.921 313.091 273.633 313.065 273.372 313.013C273.112 312.965 272.918 312.913 272.79 312.857L273.301 311.116C273.689 311.221 274.035 311.266 274.338 311.251C274.641 311.237 274.909 311.124 275.141 310.911C275.377 310.697 275.586 310.349 275.766 309.866L276.028 309.142L272.037 298.091H274.31L277.072 306.557H277.186L279.949 298.091H282.229L277.733 310.456C277.525 311.024 277.259 311.505 276.938 311.898C276.616 312.295 276.232 312.594 275.787 312.793C275.342 312.991 274.826 313.091 274.239 313.091ZM289.688 294.455H292.351L296.982 305.761H297.152L301.783 294.455H304.446V309H302.358V298.474H302.223L297.934 308.979H296.201L291.911 298.467H291.776V309H289.688V294.455ZM310.641 309.241C309.95 309.241 309.325 309.114 308.766 308.858C308.208 308.598 307.765 308.221 307.438 307.729C307.116 307.236 306.955 306.633 306.955 305.918C306.955 305.302 307.074 304.795 307.31 304.398C307.547 304 307.867 303.685 308.269 303.453C308.672 303.221 309.121 303.046 309.619 302.928C310.116 302.809 310.622 302.719 311.138 302.658C311.792 302.582 312.322 302.52 312.729 302.473C313.137 302.421 313.433 302.338 313.617 302.224C313.802 302.111 313.894 301.926 313.894 301.67V301.621C313.894 301 313.719 300.52 313.369 300.179C313.023 299.838 312.507 299.668 311.82 299.668C311.105 299.668 310.542 299.826 310.13 300.143C309.723 300.456 309.441 300.804 309.285 301.188L307.289 300.733C307.526 300.07 307.871 299.535 308.326 299.128C308.785 298.716 309.313 298.418 309.91 298.233C310.506 298.044 311.134 297.949 311.792 297.949C312.228 297.949 312.689 298.001 313.177 298.105C313.669 298.205 314.129 298.389 314.555 298.659C314.986 298.929 315.338 299.315 315.613 299.817C315.888 300.314 316.025 300.96 316.025 301.756V309H313.951V307.509H313.866C313.728 307.783 313.522 308.053 313.248 308.318C312.973 308.583 312.621 308.804 312.19 308.979C311.759 309.154 311.243 309.241 310.641 309.241ZM311.103 307.537C311.69 307.537 312.192 307.421 312.609 307.189C313.03 306.957 313.35 306.654 313.567 306.28C313.79 305.901 313.901 305.496 313.901 305.065V303.659C313.826 303.735 313.679 303.806 313.461 303.872C313.248 303.934 313.004 303.988 312.729 304.036C312.455 304.078 312.187 304.118 311.927 304.156C311.666 304.189 311.449 304.218 311.273 304.241C310.862 304.294 310.485 304.381 310.144 304.504C309.808 304.627 309.538 304.805 309.335 305.037C309.136 305.264 309.036 305.567 309.036 305.946C309.036 306.472 309.23 306.869 309.619 307.139C310.007 307.404 310.502 307.537 311.103 307.537ZM320.806 305.3L320.792 302.707H321.162L325.508 298.091H328.051L323.093 303.347H322.76L320.806 305.3ZM318.853 309V294.455H320.977V309H318.853ZM325.743 309L321.836 303.815L323.299 302.331L328.349 309H325.743ZM334.239 309.22C333.164 309.22 332.238 308.991 331.462 308.531C330.69 308.067 330.093 307.416 329.672 306.578C329.255 305.735 329.047 304.748 329.047 303.616C329.047 302.499 329.255 301.514 329.672 300.662C330.093 299.81 330.68 299.144 331.433 298.666C332.191 298.188 333.076 297.949 334.089 297.949C334.705 297.949 335.302 298.051 335.879 298.254C336.457 298.458 336.975 298.777 337.435 299.213C337.894 299.649 338.256 300.214 338.521 300.911C338.786 301.602 338.919 302.442 338.919 303.432V304.185H330.247V302.594H336.838C336.838 302.035 336.724 301.54 336.497 301.109C336.27 300.674 335.95 300.33 335.538 300.08C335.131 299.829 334.653 299.703 334.104 299.703C333.507 299.703 332.986 299.85 332.541 300.143C332.101 300.432 331.76 300.811 331.518 301.28C331.282 301.744 331.163 302.248 331.163 302.793V304.036C331.163 304.765 331.291 305.385 331.547 305.896C331.807 306.408 332.17 306.798 332.634 307.068C333.098 307.333 333.64 307.466 334.26 307.466C334.662 307.466 335.029 307.409 335.361 307.295C335.692 307.177 335.979 307.002 336.22 306.77C336.462 306.538 336.646 306.251 336.774 305.911L338.784 306.273C338.623 306.865 338.334 307.383 337.918 307.828C337.506 308.268 336.987 308.612 336.362 308.858C335.742 309.099 335.034 309.22 334.239 309.22ZM341.275 309V298.091H343.328V299.824H343.441C343.64 299.237 343.991 298.775 344.493 298.439C344.999 298.098 345.572 297.928 346.211 297.928C346.344 297.928 346.5 297.932 346.68 297.942C346.865 297.951 347.009 297.963 347.113 297.977V300.009C347.028 299.985 346.877 299.959 346.659 299.93C346.441 299.897 346.223 299.881 346.005 299.881C345.503 299.881 345.056 299.987 344.663 300.2C344.275 300.409 343.967 300.7 343.74 301.074C343.512 301.443 343.399 301.865 343.399 302.338V309H341.275Z" fill="black"/>
<rect x="82.5" y="350.5" width="307" height="63" rx="15.5" fill="white"/>
<rect x="82.5" y="350.5" width="307" height="63" rx="15.5" stroke="#E0E0E0"/>
<g clip-path="url(#clip4_1_9594)">
<path d="M130 366H98V398H130V366Z" fill="#A97DF5"/>
<path d="M101.647 383.907C103.702 386.117 105.655 388.49 108.693 389.292C110.417 389.747 111.235 389.341 112.861 389.108C114.602 388.858 116.302 388.77 118.048 388.633C120.882 388.411 123.166 387.55 125.427 385.856C125.642 385.696 126.147 385.329 126.303 385.156C126.637 384.786 126.303 384.296 125.826 384.445C124.82 385.237 123.775 385.976 122.632 386.563C121.269 387.263 119.814 387.618 118.282 387.758C116.366 387.933 114.481 388.005 112.571 388.292C111.514 388.45 110.776 388.767 109.651 388.627C106.542 388.237 104.312 385.457 102.289 383.324C102.014 383.033 100.962 381.703 100.701 381.643C100.6 381.619 100.475 381.613 100.376 381.643C100.077 381.732 100.08 382.083 100.217 382.302C100.467 382.7 101.284 383.518 101.647 383.907V383.907Z" fill="black"/>
<path d="M125.069 374.117C128.864 373.637 129.204 378.771 125.869 379.06C122.348 379.366 122 374.505 125.069 374.117Z" fill="black"/>
<path d="M99.9258 376.504C100.529 378.843 103.852 379.126 104.829 376.913C105.248 375.961 105.159 375.036 104.422 374.255C102.644 372.373 99.2604 373.922 99.9258 376.504Z" fill="black"/>
<path d="M125.027 375.429C126.29 375.173 126.651 377.17 125.248 377.17C124.058 377.17 124.018 375.634 125.027 375.429Z" fill="#FBFBFB"/>
<path d="M101.891 374.223C103.131 374.02 103.348 375.763 102.272 375.945C100.988 376.164 100.72 374.414 101.891 374.223Z" fill="#FBFBFB"/>
</g>
<path d="M146.881 376.344V374.455H158.138V376.344H153.599V389H151.412V376.344H146.881ZM162.578 382.523V389H160.455V374.455H162.55V379.866H162.685C162.941 379.279 163.331 378.813 163.857 378.467C164.382 378.122 165.069 377.949 165.917 377.949C166.665 377.949 167.318 378.103 167.877 378.411C168.44 378.718 168.876 379.178 169.184 379.788C169.496 380.394 169.652 381.152 169.652 382.061V389H167.529V382.317C167.529 381.517 167.323 380.896 166.911 380.456C166.499 380.011 165.926 379.788 165.192 379.788C164.69 379.788 164.24 379.895 163.843 380.108C163.45 380.321 163.14 380.634 162.912 381.045C162.69 381.453 162.578 381.945 162.578 382.523ZM177.188 389.22C176.113 389.22 175.187 388.991 174.411 388.531C173.639 388.067 173.042 387.416 172.621 386.578C172.204 385.735 171.996 384.748 171.996 383.616C171.996 382.499 172.204 381.514 172.621 380.662C173.042 379.81 173.63 379.144 174.382 378.666C175.14 378.188 176.025 377.949 177.039 377.949C177.654 377.949 178.251 378.051 178.828 378.254C179.406 378.458 179.925 378.777 180.384 379.213C180.843 379.649 181.205 380.214 181.471 380.911C181.736 381.602 181.868 382.442 181.868 383.432V384.185H173.196V382.594H179.787C179.787 382.035 179.674 381.54 179.446 381.109C179.219 380.674 178.9 380.33 178.488 380.08C178.08 379.829 177.602 379.703 177.053 379.703C176.456 379.703 175.935 379.85 175.49 380.143C175.05 380.432 174.709 380.811 174.468 381.28C174.231 381.744 174.113 382.248 174.113 382.793V384.036C174.113 384.765 174.24 385.385 174.496 385.896C174.757 386.408 175.119 386.798 175.583 387.068C176.047 387.333 176.589 387.466 177.209 387.466C177.612 387.466 177.979 387.409 178.31 387.295C178.641 387.177 178.928 387.002 179.169 386.77C179.411 386.538 179.596 386.251 179.723 385.911L181.733 386.273C181.572 386.865 181.283 387.383 180.867 387.828C180.455 388.268 179.936 388.612 179.311 388.858C178.691 389.099 177.983 389.22 177.188 389.22ZM199.042 374.455H201.243V384.021C201.243 385.039 201.004 385.941 200.526 386.727C200.048 387.509 199.375 388.124 198.509 388.574C197.642 389.019 196.627 389.241 195.462 389.241C194.302 389.241 193.289 389.019 192.422 388.574C191.556 388.124 190.883 387.509 190.405 386.727C189.927 385.941 189.688 385.039 189.688 384.021V374.455H191.882V383.844C191.882 384.502 192.027 385.087 192.316 385.598C192.609 386.109 193.024 386.512 193.559 386.805C194.094 387.094 194.728 387.239 195.462 387.239C196.201 387.239 196.837 387.094 197.373 386.805C197.912 386.512 198.324 386.109 198.608 385.598C198.897 385.087 199.042 384.502 199.042 383.844V374.455ZM206.387 382.523V389H204.263V378.091H206.302V379.866H206.437C206.688 379.289 207.081 378.825 207.616 378.474C208.156 378.124 208.835 377.949 209.654 377.949C210.397 377.949 211.049 378.105 211.607 378.418C212.166 378.725 212.599 379.185 212.907 379.795C213.215 380.406 213.369 381.161 213.369 382.061V389H211.245V382.317C211.245 381.526 211.039 380.908 210.627 380.463C210.215 380.013 209.649 379.788 208.93 379.788C208.437 379.788 207.999 379.895 207.616 380.108C207.237 380.321 206.936 380.634 206.714 381.045C206.496 381.453 206.387 381.945 206.387 382.523ZM216.217 389V378.091H218.34V389H216.217ZM217.289 376.408C216.92 376.408 216.603 376.285 216.337 376.038C216.077 375.787 215.947 375.489 215.947 375.143C215.947 374.793 216.077 374.495 216.337 374.249C216.603 373.998 216.92 373.872 217.289 373.872C217.658 373.872 217.973 373.998 218.234 374.249C218.499 374.495 218.631 374.793 218.631 375.143C218.631 375.489 218.499 375.787 218.234 376.038C217.973 376.285 217.658 376.408 217.289 376.408ZM226.289 378.091V379.795H220.331V378.091H226.289ZM221.929 375.477H224.052V385.797C224.052 386.209 224.114 386.519 224.237 386.727C224.36 386.931 224.519 387.071 224.713 387.146C224.912 387.217 225.127 387.253 225.359 387.253C225.529 387.253 225.679 387.241 225.806 387.217C225.934 387.194 226.034 387.175 226.105 387.161L226.488 388.915C226.365 388.962 226.19 389.009 225.963 389.057C225.735 389.109 225.451 389.137 225.11 389.142C224.552 389.152 224.031 389.052 223.548 388.844C223.065 388.635 222.674 388.313 222.376 387.878C222.078 387.442 221.929 386.895 221.929 386.237V375.477ZM234.102 374.455H236.765L241.396 385.761H241.566L246.197 374.455H248.86V389H246.772V378.474H246.637L242.348 388.979H240.615L236.325 378.467H236.19V389H234.102V374.455ZM255.055 389.241C254.364 389.241 253.739 389.114 253.18 388.858C252.622 388.598 252.179 388.221 251.852 387.729C251.53 387.236 251.369 386.633 251.369 385.918C251.369 385.302 251.488 384.795 251.724 384.398C251.961 384 252.281 383.685 252.683 383.453C253.086 383.221 253.536 383.046 254.033 382.928C254.53 382.809 255.036 382.719 255.553 382.658C256.206 382.582 256.736 382.52 257.143 382.473C257.551 382.421 257.847 382.338 258.031 382.224C258.216 382.111 258.308 381.926 258.308 381.67V381.621C258.308 381 258.133 380.52 257.783 380.179C257.437 379.838 256.921 379.668 256.234 379.668C255.519 379.668 254.956 379.826 254.544 380.143C254.137 380.456 253.855 380.804 253.699 381.188L251.703 380.733C251.94 380.07 252.286 379.535 252.74 379.128C253.199 378.716 253.727 378.418 254.324 378.233C254.92 378.044 255.548 377.949 256.206 377.949C256.642 377.949 257.103 378.001 257.591 378.105C258.083 378.205 258.543 378.389 258.969 378.659C259.4 378.929 259.752 379.315 260.027 379.817C260.302 380.314 260.439 380.96 260.439 381.756V389H258.365V387.509H258.28C258.143 387.783 257.937 388.053 257.662 388.318C257.387 388.583 257.035 388.804 256.604 388.979C256.173 389.154 255.657 389.241 255.055 389.241ZM255.517 387.537C256.104 387.537 256.606 387.421 257.023 387.189C257.444 386.957 257.764 386.654 257.982 386.28C258.204 385.901 258.315 385.496 258.315 385.065V383.659C258.24 383.735 258.093 383.806 257.875 383.872C257.662 383.934 257.418 383.988 257.143 384.036C256.869 384.078 256.601 384.118 256.341 384.156C256.08 384.189 255.863 384.218 255.688 384.241C255.276 384.294 254.899 384.381 254.558 384.504C254.222 384.627 253.952 384.805 253.749 385.037C253.55 385.264 253.45 385.567 253.45 385.946C253.45 386.472 253.644 386.869 254.033 387.139C254.421 387.404 254.916 387.537 255.517 387.537ZM271.442 380.754L269.517 381.095C269.437 380.849 269.309 380.615 269.134 380.392C268.963 380.17 268.731 379.987 268.438 379.845C268.144 379.703 267.777 379.632 267.337 379.632C266.736 379.632 266.234 379.767 265.831 380.037C265.429 380.302 265.228 380.645 265.228 381.067C265.228 381.431 265.363 381.725 265.632 381.947C265.902 382.17 266.338 382.352 266.939 382.494L268.672 382.892C269.676 383.124 270.424 383.482 270.917 383.964C271.409 384.447 271.655 385.075 271.655 385.847C271.655 386.5 271.466 387.082 271.087 387.594C270.713 388.1 270.19 388.498 269.517 388.787C268.85 389.076 268.076 389.22 267.195 389.22C265.973 389.22 264.977 388.96 264.205 388.439C263.433 387.913 262.96 387.168 262.784 386.202L264.837 385.889C264.965 386.424 265.228 386.829 265.625 387.104C266.023 387.374 266.542 387.509 267.181 387.509C267.877 387.509 268.433 387.364 268.85 387.075C269.266 386.782 269.475 386.424 269.475 386.003C269.475 385.662 269.347 385.375 269.091 385.143C268.84 384.911 268.454 384.736 267.934 384.618L266.087 384.213C265.069 383.981 264.316 383.612 263.828 383.105C263.346 382.598 263.104 381.957 263.104 381.18C263.104 380.536 263.284 379.973 263.644 379.49C264.004 379.007 264.501 378.631 265.135 378.361C265.77 378.086 266.497 377.949 267.316 377.949C268.495 377.949 269.423 378.205 270.1 378.716C270.777 379.223 271.224 379.902 271.442 380.754ZM279.082 378.091V379.795H273.124V378.091H279.082ZM274.722 375.477H276.845V385.797C276.845 386.209 276.907 386.519 277.03 386.727C277.153 386.931 277.312 387.071 277.506 387.146C277.705 387.217 277.92 387.253 278.152 387.253C278.322 387.253 278.472 387.241 278.599 387.217C278.727 387.194 278.827 387.175 278.898 387.161L279.281 388.915C279.158 388.962 278.983 389.009 278.756 389.057C278.528 389.109 278.244 389.137 277.903 389.142C277.345 389.152 276.824 389.052 276.341 388.844C275.858 388.635 275.467 388.313 275.169 387.878C274.871 387.442 274.722 386.895 274.722 386.237V375.477ZM286.016 389.22C284.941 389.22 284.016 388.991 283.239 388.531C282.467 388.067 281.871 387.416 281.449 386.578C281.033 385.735 280.824 384.748 280.824 383.616C280.824 382.499 281.033 381.514 281.449 380.662C281.871 379.81 282.458 379.144 283.211 378.666C283.968 378.188 284.854 377.949 285.867 377.949C286.482 377.949 287.079 378.051 287.657 378.254C288.234 378.458 288.753 378.777 289.212 379.213C289.671 379.649 290.033 380.214 290.299 380.911C290.564 381.602 290.696 382.442 290.696 383.432V384.185H282.025V382.594H288.615C288.615 382.035 288.502 381.54 288.275 381.109C288.047 380.674 287.728 380.33 287.316 380.08C286.908 379.829 286.43 379.703 285.881 379.703C285.284 379.703 284.764 379.85 284.319 380.143C283.878 380.432 283.537 380.811 283.296 381.28C283.059 381.744 282.941 382.248 282.941 382.793V384.036C282.941 384.765 283.069 385.385 283.324 385.896C283.585 386.408 283.947 386.798 284.411 387.068C284.875 387.333 285.417 387.466 286.037 387.466C286.44 387.466 286.807 387.409 287.138 387.295C287.47 387.177 287.756 387.002 287.998 386.77C288.239 386.538 288.424 386.251 288.551 385.911L290.561 386.273C290.4 386.865 290.112 387.383 289.695 387.828C289.283 388.268 288.765 388.612 288.14 388.858C287.519 389.099 286.811 389.22 286.016 389.22ZM293.053 389V378.091H295.105V379.824H295.219C295.418 379.237 295.768 378.775 296.27 378.439C296.777 378.098 297.349 377.928 297.989 377.928C298.121 377.928 298.277 377.932 298.457 377.942C298.642 377.951 298.786 377.963 298.891 377.977V380.009C298.805 379.985 298.654 379.959 298.436 379.93C298.218 379.897 298 379.881 297.783 379.881C297.281 379.881 296.833 379.987 296.44 380.2C296.052 380.409 295.744 380.7 295.517 381.074C295.29 381.443 295.176 381.865 295.176 382.338V389H293.053Z" fill="black"/>
<rect x="82.5" y="430.5" width="307" height="63" rx="15.5" fill="white"/>
<rect x="82.5" y="430.5" width="307" height="63" rx="15.5" stroke="#E0E0E0"/>
<g clip-path="url(#clip5_1_9594)">
<path d="M130 446H98V478H130V446Z" fill="#FF7A45"/>
<path d="M101.647 463.907C103.702 466.117 105.655 468.49 108.693 469.292C110.417 469.747 111.235 469.341 112.861 469.108C114.602 468.858 116.302 468.77 118.048 468.633C120.882 468.411 123.166 467.55 125.427 465.856C125.642 465.696 126.147 465.329 126.303 465.156C126.637 464.786 126.303 464.296 125.826 464.445C124.82 465.237 123.775 465.976 122.632 466.563C121.269 467.263 119.814 467.618 118.282 467.758C116.366 467.933 114.481 468.005 112.571 468.292C111.514 468.45 110.776 468.767 109.651 468.627C106.542 468.237 104.312 465.457 102.289 463.324C102.014 463.033 100.962 461.703 100.701 461.643C100.6 461.619 100.475 461.613 100.376 461.643C100.077 461.732 100.08 462.083 100.217 462.302C100.467 462.7 101.284 463.518 101.647 463.907V463.907Z" fill="black"/>
<path d="M125.069 454.117C128.864 453.637 129.204 458.771 125.869 459.06C122.348 459.366 122 454.505 125.069 454.117Z" fill="black"/>
<path d="M99.9258 456.504C100.529 458.843 103.852 459.126 104.829 456.913C105.248 455.961 105.159 455.036 104.422 454.255C102.644 452.373 99.2604 453.922 99.9258 456.504Z" fill="black"/>
<path d="M125.027 455.429C126.29 455.173 126.651 457.17 125.248 457.17C124.058 457.17 124.018 455.634 125.027 455.429Z" fill="#FBFBFB"/>
<path d="M101.891 454.223C103.131 454.02 103.348 455.763 102.272 455.945C100.988 456.164 100.72 454.414 101.891 454.223Z" fill="#FBFBFB"/>
</g>
<path d="M146.881 456.344V454.455H158.138V456.344H153.599V469H151.412V456.344H146.881ZM162.578 462.523V469H160.455V454.455H162.55V459.866H162.685C162.941 459.279 163.331 458.813 163.857 458.467C164.382 458.122 165.069 457.949 165.917 457.949C166.665 457.949 167.318 458.103 167.877 458.411C168.44 458.718 168.876 459.178 169.184 459.788C169.496 460.394 169.652 461.152 169.652 462.061V469H167.529V462.317C167.529 461.517 167.323 460.896 166.911 460.456C166.499 460.011 165.926 459.788 165.192 459.788C164.69 459.788 164.24 459.895 163.843 460.108C163.45 460.321 163.14 460.634 162.912 461.045C162.69 461.453 162.578 461.945 162.578 462.523ZM177.188 469.22C176.113 469.22 175.187 468.991 174.411 468.531C173.639 468.067 173.042 467.416 172.621 466.578C172.204 465.735 171.996 464.748 171.996 463.616C171.996 462.499 172.204 461.514 172.621 460.662C173.042 459.81 173.63 459.144 174.382 458.666C175.14 458.188 176.025 457.949 177.039 457.949C177.654 457.949 178.251 458.051 178.828 458.254C179.406 458.458 179.925 458.777 180.384 459.213C180.843 459.649 181.205 460.214 181.471 460.911C181.736 461.602 181.868 462.442 181.868 463.432V464.185H173.196V462.594H179.787C179.787 462.035 179.674 461.54 179.446 461.109C179.219 460.674 178.9 460.33 178.488 460.08C178.08 459.829 177.602 459.703 177.053 459.703C176.456 459.703 175.935 459.85 175.49 460.143C175.05 460.432 174.709 460.811 174.468 461.28C174.231 461.744 174.113 462.248 174.113 462.793V464.036C174.113 464.765 174.24 465.385 174.496 465.896C174.757 466.408 175.119 466.798 175.583 467.068C176.047 467.333 176.589 467.466 177.209 467.466C177.612 467.466 177.979 467.409 178.31 467.295C178.641 467.177 178.928 467.002 179.169 466.77C179.411 466.538 179.596 466.251 179.723 465.911L181.733 466.273C181.572 466.865 181.283 467.383 180.867 467.828C180.455 468.268 179.936 468.612 179.311 468.858C178.691 469.099 177.983 469.22 177.188 469.22ZM190.959 454.455L195.007 466.301H195.171L199.219 454.455H201.591L196.357 469H193.821L188.587 454.455H190.959ZM205.622 469.241C204.931 469.241 204.306 469.114 203.747 468.858C203.188 468.598 202.745 468.221 202.419 467.729C202.097 467.236 201.936 466.633 201.936 465.918C201.936 465.302 202.054 464.795 202.291 464.398C202.528 464 202.847 463.685 203.25 463.453C203.652 463.221 204.102 463.046 204.599 462.928C205.096 462.809 205.603 462.719 206.119 462.658C206.772 462.582 207.303 462.52 207.71 462.473C208.117 462.421 208.413 462.338 208.598 462.224C208.782 462.111 208.875 461.926 208.875 461.67V461.621C208.875 461 208.699 460.52 208.349 460.179C208.003 459.838 207.487 459.668 206.801 459.668C206.086 459.668 205.522 459.826 205.11 460.143C204.703 460.456 204.422 460.804 204.265 461.188L202.27 460.733C202.506 460.07 202.852 459.535 203.306 459.128C203.766 458.716 204.294 458.418 204.89 458.233C205.487 458.044 206.114 457.949 206.772 457.949C207.208 457.949 207.67 458.001 208.157 458.105C208.65 458.205 209.109 458.389 209.535 458.659C209.966 458.929 210.319 459.315 210.593 459.817C210.868 460.314 211.005 460.96 211.005 461.756V469H208.931V467.509H208.846C208.709 467.783 208.503 468.053 208.228 468.318C207.954 468.583 207.601 468.804 207.17 468.979C206.739 469.154 206.223 469.241 205.622 469.241ZM206.083 467.537C206.671 467.537 207.172 467.421 207.589 467.189C208.011 466.957 208.33 466.654 208.548 466.28C208.77 465.901 208.882 465.496 208.882 465.065V463.659C208.806 463.735 208.659 463.806 208.441 463.872C208.228 463.934 207.984 463.988 207.71 464.036C207.435 464.078 207.168 464.118 206.907 464.156C206.647 464.189 206.429 464.218 206.254 464.241C205.842 464.294 205.466 464.381 205.125 464.504C204.788 464.627 204.519 464.805 204.315 465.037C204.116 465.264 204.017 465.567 204.017 465.946C204.017 466.472 204.211 466.869 204.599 467.139C204.987 467.404 205.482 467.537 206.083 467.537ZM215.957 454.455V469H213.834V454.455H215.957ZM225.725 464.476V458.091H227.855V469H225.767V467.111H225.654C225.403 467.693 225 468.179 224.446 468.567C223.897 468.95 223.213 469.142 222.394 469.142C221.693 469.142 221.073 468.988 220.533 468.68C219.998 468.368 219.577 467.906 219.269 467.295C218.966 466.685 218.814 465.929 218.814 465.03V458.091H220.938V464.774C220.938 465.518 221.144 466.109 221.556 466.55C221.968 466.99 222.503 467.21 223.161 467.21C223.559 467.21 223.954 467.111 224.347 466.912C224.745 466.713 225.074 466.412 225.334 466.01C225.599 465.607 225.73 465.096 225.725 464.476ZM235.411 469.22C234.336 469.22 233.41 468.991 232.634 468.531C231.862 468.067 231.265 467.416 230.844 466.578C230.427 465.735 230.219 464.748 230.219 463.616C230.219 462.499 230.427 461.514 230.844 460.662C231.265 459.81 231.852 459.144 232.605 458.666C233.363 458.188 234.248 457.949 235.261 457.949C235.877 457.949 236.473 458.051 237.051 458.254C237.629 458.458 238.147 458.777 238.607 459.213C239.066 459.649 239.428 460.214 239.693 460.911C239.958 461.602 240.091 462.442 240.091 463.432V464.185H231.419V462.594H238.01C238.01 462.035 237.896 461.54 237.669 461.109C237.442 460.674 237.122 460.33 236.71 460.08C236.303 459.829 235.825 459.703 235.276 459.703C234.679 459.703 234.158 459.85 233.713 460.143C233.273 460.432 232.932 460.811 232.69 461.28C232.454 461.744 232.335 462.248 232.335 462.793V464.036C232.335 464.765 232.463 465.385 232.719 465.896C232.979 466.408 233.341 466.798 233.805 467.068C234.269 467.333 234.812 467.466 235.432 467.466C235.834 467.466 236.201 467.409 236.533 467.295C236.864 467.177 237.151 467.002 237.392 466.77C237.634 466.538 237.818 466.251 237.946 465.911L239.956 466.273C239.795 466.865 239.506 467.383 239.089 467.828C238.678 468.268 238.159 468.612 237.534 468.858C236.914 469.099 236.206 469.22 235.411 469.22ZM257.754 459.05C257.617 458.619 257.432 458.233 257.2 457.892C256.973 457.546 256.701 457.253 256.384 457.011C256.066 456.765 255.704 456.578 255.297 456.45C254.894 456.322 254.452 456.259 253.969 456.259C253.15 456.259 252.411 456.469 251.753 456.891C251.095 457.312 250.574 457.93 250.19 458.744C249.812 459.554 249.622 460.546 249.622 461.72C249.622 462.899 249.814 463.896 250.197 464.71C250.581 465.525 251.107 466.143 251.774 466.564C252.442 466.985 253.202 467.196 254.054 467.196C254.845 467.196 255.534 467.035 256.121 466.713C256.713 466.391 257.17 465.937 257.491 465.349C257.818 464.758 257.982 464.062 257.982 463.261L258.55 463.368H254.388V461.557H260.105V463.212C260.105 464.433 259.845 465.494 259.324 466.393C258.808 467.288 258.093 467.98 257.179 468.467C256.27 468.955 255.228 469.199 254.054 469.199C252.738 469.199 251.582 468.896 250.588 468.29C249.598 467.684 248.827 466.824 248.273 465.712C247.719 464.594 247.442 463.268 247.442 461.734C247.442 460.574 247.603 459.533 247.925 458.609C248.247 457.686 248.699 456.902 249.281 456.259C249.868 455.61 250.557 455.115 251.348 454.774C252.143 454.429 253.012 454.256 253.955 454.256C254.741 454.256 255.472 454.372 256.149 454.604C256.831 454.836 257.437 455.165 257.967 455.591C258.502 456.017 258.945 456.524 259.295 457.111C259.646 457.693 259.883 458.339 260.006 459.05H257.754ZM269.631 464.476V458.091H271.762V469H269.674V467.111H269.56C269.309 467.693 268.907 468.179 268.353 468.567C267.803 468.95 267.119 469.142 266.3 469.142C265.599 469.142 264.979 468.988 264.439 468.68C263.904 468.368 263.483 467.906 263.175 467.295C262.872 466.685 262.721 465.929 262.721 465.03V458.091H264.844V464.774C264.844 465.518 265.05 466.109 265.462 466.55C265.874 466.99 266.409 467.21 267.067 467.21C267.465 467.21 267.86 467.111 268.253 466.912C268.651 466.713 268.98 466.412 269.24 466.01C269.506 465.607 269.636 465.096 269.631 464.476ZM275.957 473.091C275.64 473.091 275.351 473.065 275.091 473.013C274.83 472.965 274.636 472.913 274.509 472.857L275.02 471.116C275.408 471.221 275.754 471.266 276.057 471.251C276.36 471.237 276.627 471.124 276.859 470.911C277.096 470.697 277.304 470.349 277.484 469.866L277.747 469.142L273.756 458.091H276.028L278.791 466.557H278.905L281.668 458.091H283.947L279.452 470.456C279.243 471.024 278.978 471.505 278.656 471.898C278.334 472.295 277.951 472.594 277.506 472.793C277.061 472.991 276.545 473.091 275.957 473.091Z" fill="black"/>
</g>
<defs>
<filter id="filter0_f_1_9594" x="-573" y="-753" width="1617" height="1617" filterUnits="userSpaceOnUse" color-interpolation-filters="sRGB">
<feFlood flood-opacity="0" result="BackgroundImageFix"/>
<feBlend mode="normal" in="SourceGraphic" in2="BackgroundImageFix" result="shape"/>
<feGaussianBlur stdDeviation="210" result="effect1_foregroundBlur_1_9594"/>
</filter>
<clipPath id="clip0_1_9594">
<rect width="472" height="604" rx="32" fill="white"/>
</clipPath>
<clipPath id="clip1_1_9594">
<rect width="32" height="32" fill="white" transform="translate(98 126)"/>
</clipPath>
<clipPath id="clip2_1_9594">
<rect width="32" height="32" fill="white" transform="translate(98 206)"/>
</clipPath>
<clipPath id="clip3_1_9594">
<rect width="32" height="32" fill="white" transform="translate(98 286)"/>
</clipPath>
<clipPath id="clip4_1_9594">
<rect width="32" height="32" fill="white" transform="translate(98 366)"/>
</clipPath>
<clipPath id="clip5_1_9594">
<rect width="32" height="32" fill="white" transform="translate(98 446)"/>
</clipPath>
</defs>
</svg>
