<svg width="56" height="56" viewBox="0 0 56 56" fill="none" xmlns="http://www.w3.org/2000/svg">
<g clip-path="url(#clip0_744_6375)">
<path d="M56 0H0V56H56V0Z" fill="#FFD700"/>
<path d="M43.8162 26.4351C48.2604 26.0493 47.807 19.208 42.7507 19.8473C38.6611 20.3645 39.1239 26.8426 43.8162 26.4351Z" fill="#010101"/>
<path d="M42.7507 19.8473C47.807 19.208 48.2604 26.0493 43.8162 26.4351C39.1239 26.8426 38.6611 20.3645 42.7507 19.8473Z" fill="#010101"/>
<path d="M9.24546 23.0284C10.0489 26.145 14.4768 26.523 15.7788 23.5729C16.338 22.3051 16.219 21.0715 15.2367 20.0316C12.8676 17.5233 8.3588 19.5875 9.24546 23.0284Z" fill="#010101"/>
<path d="M15.7788 23.5729C14.4768 26.523 10.0489 26.145 9.24546 23.0284C8.3588 19.5875 12.8676 17.5233 15.2367 20.0316C16.219 21.0715 16.3388 22.3043 15.7788 23.5729Z" fill="#010101"/>
<path d="M11.5383 32.893C14.2776 35.8384 16.8793 39.0001 20.9284 40.0696C23.2252 40.6762 24.3148 40.1341 26.4825 39.8238C28.8018 39.4917 31.0667 39.3742 33.3946 39.1914C37.17 38.8951 40.2134 37.7487 43.2273 35.4908C43.5135 35.2769 44.1863 34.7884 44.3947 34.5582C44.8388 34.0651 44.3947 33.4118 43.7593 33.6109C42.4176 34.6663 41.0254 35.6502 39.5025 36.4327C37.6864 37.3652 35.7474 37.8381 33.7057 38.0248C31.1523 38.2581 28.6401 38.3546 26.0952 38.7364C24.6866 38.948 23.7035 39.3703 22.2047 39.1829C18.0615 38.6641 15.0904 34.9588 12.3938 32.116C12.0275 31.7294 10.626 29.9561 10.2783 29.876C10.1437 29.8449 9.97651 29.8363 9.84429 29.876C9.44607 29.995 9.44996 30.4632 9.63351 30.7549C9.9664 31.2846 11.0553 32.375 11.5383 32.8938V32.893Z" fill="#010101"/>
<path d="M42.6946 21.5957C44.377 21.2542 44.8584 23.9158 42.9886 23.9158C41.4027 23.9158 41.3498 21.8695 42.6946 21.5957Z" fill="#FBFCFC"/>
<path d="M11.8642 19.9889C13.517 19.7183 13.8055 22.0407 12.3721 22.2842C10.661 22.5751 10.304 20.2441 11.8642 19.9889Z" fill="#FBFCFC"/>
</g>
<defs>
<clipPath id="clip0_744_6375">
<rect width="56" height="56" fill="white"/>
</clipPath>
</defs>
</svg>

