<svg width="512" height="512" viewBox="0 0 512 512" fill="none" xmlns="http://www.w3.org/2000/svg">
<rect width="512" height="512" rx="32" fill="#FFD800"/>
<g clip-path="url(#clip0_1_2270)">
<path d="M456 56H56V456H456V56Z" fill="#FFD800"/>
<path d="M101.603 279.826C127.299 307.456 151.704 337.114 189.686 347.145C211.231 352.836 221.452 347.751 241.786 344.84C263.542 341.725 284.788 340.623 306.624 338.908C342.038 336.129 370.587 325.375 398.859 304.195C401.544 302.188 407.855 297.606 409.81 295.447C413.976 290.821 409.81 284.693 403.849 286.561C391.264 296.461 378.204 305.69 363.919 313.03C346.883 321.778 328.694 326.214 309.543 327.965C285.59 330.153 262.025 331.058 238.153 334.64C224.94 336.625 215.718 340.586 201.659 338.828C162.794 333.962 134.923 299.204 109.629 272.538C106.192 268.912 93.045 252.277 89.7837 251.526C88.5216 251.234 86.953 251.154 85.7127 251.526C81.9772 252.642 82.0137 257.034 83.7355 259.77C86.8581 264.739 97.0723 274.967 101.603 279.834V279.826Z" fill="black"/>
<path d="M394.383 157.457C441.814 151.46 446.067 215.635 404.379 219.253C360.363 223.076 356.022 162.309 394.383 157.457Z" fill="black"/>
<path d="M80.0662 187.295C87.6028 216.529 129.138 220.075 141.352 192.402C146.597 180.509 145.481 168.938 136.266 159.184C114.043 135.654 71.7489 155.018 80.0662 187.295Z" fill="black"/>
<path d="M393.824 173.862C409.605 170.659 414.121 195.625 396.582 195.625C381.705 195.625 381.209 176.43 393.824 173.862Z" fill="#FBFBFB"/>
<path d="M104.632 158.781C120.135 156.242 122.842 178.028 109.396 180.311C93.3448 183.04 89.996 161.174 104.632 158.781Z" fill="#FBFBFB"/>
</g>
<defs>
<clipPath id="clip0_1_2270">
<rect width="400" height="400" fill="white" transform="translate(56 56)"/>
</clipPath>
</defs>
</svg>
